<svg xmlns="http://www.w3.org/2000/svg" viewBox="0 0 635 1100"><g transform="translate(0 820) scale(1 -1)"><path d="M91.0 0.0H146.0V700.0H91.0V0.0ZM43.0 0.0H194.0V5.0Q146.0 5.0 146.0 63.0H91.0Q91.0 5.0 43.0 5.0V0.0ZM43.0 700.0V695.0Q91.0 695.0 91.0 637.0H146.0Q146.0 695.0 194.0 695.0V700.0H43.0ZM139.0 700.0V689.0C402.0 704.0 527.0 582.0 527.0 350.0C527.0 109.0 401.0 -2.0 139.0 11.0V0.0C456.0 -12.0 592.0 112.0 592.0 350.0C592.0 579.0 453.0 715.0 139.0 700.0Z" fill="black" fill-rule="nonzero"/></g></svg>
