<svg xmlns="http://www.w3.org/2000/svg" viewBox="0 0 850 1100"><g transform="translate(0 820) scale(1 -1)"><path d="M212.79999999999998 560.0H737.1999999999999V572.0L718.1999999999999 590.0L699.1999999999999 572.0H212.79999999999998V560.0ZM476.9 742.0Q389.5 467.0 241.29999999999998 296.0L258.4 277.0L323.0 336.0C475.0 441.0 524.4 377.0 510.15 164.0L534.85 180.0C537.6999999999999 389.0 483.54999999999995 475.0 310.65 370.0Q433.2 514.0 521.55 728.0L476.9 742.0ZM774.25 465.0C517.75 359.0 332.5 256.0 346.75 144.0C359.09999999999997 47.0 623.1999999999999 35.0 776.15 94.0L757.15 119.0C623.1999999999999 76.0 389.5 79.0 377.15 153.0C362.9 240.0 517.75 329.0 800.8499999999999 433.0L774.25 465.0Z" fill="black" fill-rule="nonzero"/></g></svg>
