<svg xmlns="http://www.w3.org/2000/svg" viewBox="0 0 672 1100"><g transform="translate(0 820) scale(1 -1)"><path d="M563.0 515.0H483.0V501.0H550.0C546.0 248.0 401.0 2.0 255.0 2.0C158.0 2.0 96.0 65.0 96.0 173.0C96.0 267.0 154.0 323.0 250.0 387.0C335.0 444.0 411.0 494.0 411.0 591.0C411.0 664.0 352.0 710.0 280.0 710.0C197.0 710.0 136.0 659.0 136.0 578.0C136.0 443.0 296.0 240.0 477.0 66.0C536.0 10.0 575.0 -26.0 651.0 7.0V17.0Q591.0 14.0 546.0 54.0C393.0 187.0 186.0 451.0 186.0 595.0C186.0 654.0 219.0 698.0 276.0 698.0C335.0 698.0 371.0 655.0 371.0 578.0C371.0 510.0 339.0 460.0 259.0 411.0C170.0 358.0 39.0 290.0 39.0 169.0C39.0 68.0 117.0 -10.0 253.0 -10.0C421.0 -10.0 576.0 261.0 563.0 515.0Z" fill="black"/></g></svg>
